<svg width="808.14056" height="548.45862" xmlns="http://www.w3.org/2000/svg">
 <metadata id="metadata116">image/svg+xml</metadata>

 <g>
  <title>background</title>
  <rect fill="none" id="canvas_background" height="602" width="802" y="-1" x="-1"/>
 </g>
 <g>
  <title>Layer 1</title>
  <g fill="#000000" transform="matrix(1.3854609,0,0,1.3854609,-156.70511,-131.74929) " id="Layer1000">
   <path fill="#000000" fill-rule="evenodd" id="path95" d="m291.1677,333.1949l-0.2491,134.1954l-44.2275,0.2512l0.5843,-60.4989c34.3988,-0.2406 36.2145,1.3514 1.9999,-31.1146c-9.919,-9.4123 -34.6946,-36.9697 -44.1555,-42.3356c-9.1696,3.2715 -55.2911,45.8519 -69.9564,57.78c-22.7171,18.476 -7.4964,15.7295 26.7401,16.0117l0.1545,59.1307c-12.7289,1.3408 -31.1068,-2.2744 -39.8939,4.3053c2.9758,9.7842 14.6033,6.0356 27.4811,6.1429c25.4206,0.2124 20.9191,9.5167 20.9191,-61.7162c0,-23.4976 -2.3464,-17.2305 -24.6521,-17.9552c5.2933,-11.5089 50.925,-48.6916 59.2076,-51.0958c16.2481,9.5139 33.3516,33.7157 49.3944,46.1836l-16.3688,7.2896l-1.1037,76.8798c10.9274,0.664 20.9388,0.3084 30.9008,0.338c36.9428,0.1108 32.6516,5.9954 32.6106,-35.0601l-0.182,-94.4496c0.4855,-11.4129 -1.4311,-8.1591 5.1698,-15.4318c7.1534,-7.8816 31.2084,-26.1106 40.9284,-34.0206c11.6486,-9.4786 29.8974,-28.7724 43.694,-33.6141c0.319,34.2069 1.8277,189.0278 -0.5744,196.7161c-1.9209,6.1472 0.1094,2.1728 -3.2511,6.2664l-9.6649,-0.0113c-5.6666,-6.96 -4.0463,-9.1928 -4.0294,-23.0402l-0.004,-153.2205c-13.8651,9.521 -9.4892,17.5735 -9.4405,39.6562l-0.2266,133.1898c0.1228,13.314 0.7248,12.9915 13.7007,13.0324c32.2571,-0.0981 23.3988,-1.8969 23.3833,-37.4897c-0.0198,-44.1054 2.618,-163.4506 -0.6161,-191.8921c-10.6035,-0.8659 -45.8032,33.1053 -55.4117,41.0046c-18.361,15.0944 -35.9316,29.2213 -52.8607,44.5726l-0.0002,0z"/>
   <path fill="#000000" fill-rule="evenodd" id="path97" d="m363.6454,202.7177l-0.4121,56.6996c3.1339,-4.359 4.618,-4.7626 9.3389,-8.375l0.1024,-44.9296c25.2293,-14.3852 69.3551,-61.8087 90.2036,-67.862l0.0988,329.3104l-20.351,0.1256l0.006,-147.99c12.007,4.0005 7.6029,3.75 14.8184,7.7476c-0.0642,-12.1947 0.1087,-11.0551 -7.3623,-16.7386c-6.169,-4.6934 -8.0729,-8.1293 -16.3208,-7.3806c-2.9243,18.3878 -0.7099,111.956 -0.8165,143.4383c-0.0945,27.6801 -6.9085,30.3603 18.6249,30.2975c18.2967,-0.0452 21.0404,4.2277 21.0418,-13.3895l-0.0765,-342.0774c-14.6456,-0.9781 -95.403,71.7805 -108.8956,81.1237z"/>
   <path fill="#000000" fill-rule="evenodd" id="path99" d="m534.7639,387.3258c0.1553,104.1563 -10.6126,89.5925 32.792,89.6702c26.9032,0.048 22.8999,9.2796 22.5901,-54.4005l-6.0568,-4.0591c-0.4749,-0.3429 -1.1425,-0.8468 -1.5962,-1.1827l-3.431,-2.6823c6.7131,-5.2579 11.6521,-11.7219 17.5981,-18.3764c8.039,-8.9974 9.9253,-13.8898 19.2212,-18.4351c15.0033,7.0624 31.3743,26.273 44.5619,36.2336c-4.2763,4.2326 -11.6048,5.6122 -14.2779,7.0779c-0.29,13.7085 -3.3886,47.8547 2.3097,53.4549c6.0949,4.9341 29.831,3.443 35.7721,-0.4544c-1.4078,-10.6967 -16.1106,-6.7562 -28.5368,-6.9135l-0.1475,-38.9032c7.9798,-0.1207 31.0229,2.834 24.8631,-7.5042l-64.5446,-55.5373c-7.4407,2.6061 -53.5036,53.2277 -54.1698,60.9654c6.3045,3.419 9.4406,2.3337 18.6574,2.7274l0.1877,38.1114l-36.3811,0.5794l-0.0769,-83.7622l-63.7161,-49.4432c-5.661,12.8969 13.1022,21.1999 21.6141,27.8855c11.0565,8.6847 21.9204,17.2679 32.7673,24.9484z"/>
  </g>
 </g>
</svg>